<svg xmlns="http://www.w3.org/2000/svg" width="1200" height="300" viewBox="0 0 1200 300">
  <defs>
    <linearGradient id="bbg" x1="0" y1="0" x2="1" y2="1">
      <stop offset="0" stop-color="#1d2029"/>
      <stop offset="1" stop-color="#121419"/>
    </linearGradient>
    <linearGradient id="bfolder" x1="0" y1="0" x2="0" y2="1">
      <stop offset="0" stop-color="#f0cf8a"/>
      <stop offset="1" stop-color="#d9a64e"/>
    </linearGradient>
    <pattern id="grid" width="24" height="24" patternUnits="userSpaceOnUse">
      <path d="M24 0 H0 V24" fill="none" stroke="#ffffff" stroke-opacity="0.035"/>
    </pattern>
  </defs>
  <rect width="1200" height="300" rx="24" fill="url(#bbg)"/>
  <rect width="1200" height="300" rx="24" fill="url(#grid)"/>

  <!-- logo mark -->
  <g transform="translate(70 40) scale(0.86)">
    <rect x="8" y="8" width="240" height="240" rx="52" fill="#232733"/>
    <path d="M52 86 a12 12 0 0 1 12 -12 h38 l14 14 h76 a12 12 0 0 1 12 12 v84 a12 12 0 0 1 -12 12 h-128 a12 12 0 0 1 -12 -12 z" fill="url(#bfolder)"/>
    <path d="M52 108 h152 v76 a12 12 0 0 1 -12 12 h-128 a12 12 0 0 1 -12 -12 z" fill="#e8bb63"/>
    <rect x="84" y="122" width="48" height="48" rx="9" fill="none" stroke="#1b1d22" stroke-width="7"/>
    <path d="M97 135 l22 22 M119 135 l-22 22" stroke="#1b1d22" stroke-width="7" stroke-linecap="round"/>
    <rect x="146" y="142" width="34" height="8" rx="4" fill="#1b1d22"/>
    <circle cx="190" cy="186" r="34" fill="#e06c75" stroke="#232733" stroke-width="8"/>
    <path d="M174 186 h32" stroke="#232733" stroke-width="9" stroke-linecap="round"/>
  </g>

  <g font-family="DejaVu Sans Mono, Menlo, Consolas, monospace">
    <text x="340" y="132" font-size="64" font-weight="bold" fill="#e6e8ee">claude-revoke</text>
    <text x="342" y="180" font-size="24" fill="#9aa1ad">Audit and revoke Claude Code access on Linux.</text>
    <text x="342" y="232" font-size="20" fill="#e5c07b">[x] stale</text>
    <text x="492" y="232" font-size="20" fill="#e06c75">[x] risky</text>
    <text x="642" y="232" font-size="20" fill="#98c379">[ ] ok</text>
    <text x="762" y="232" font-size="20" fill="#61afef">quarantine · undo · no deps</text>
  </g>
</svg>
